<svg id="SvgjsSvg2524" width="1021" height="747" xmlns="http://www.w3.org/2000/svg" version="1.1" xmlns:xlink="http://www.w3.org/1999/xlink" xmlns:svgjs="http://svgjs.com/svgjs"><defs id="SvgjsDefs2525"></defs><g id="SvgjsG2526" transform="translate(77,222)"><path id="SvgjsPath2527" d="M 0 0L 100 0L 100 70L 0 70Z" stroke="#323232" stroke-width="2" fill-opacity="1" fill="#ffffff"></path><g id="SvgjsG2528"><text id="SvgjsText2529" font-family="微软雅黑" text-anchor="middle" font-size="13px" width="60" fill="#323232" font-weight="400" align="middle" anchor="middle" family="微软雅黑" size="13px" weight="400" font-style="" y="25.05" transform="rotate(0)"><tspan id="SvgjsTspan2530" dy="16" x="50"><tspan id="SvgjsTspan2531" style="text-decoration:;">Customer</tspan></tspan></text></g></g><g id="SvgjsG2532" transform="translate(25,96)"><path id="SvgjsPath2533" d="M 0 27.5C 0 -9.166666666666666 65 -9.166666666666666 65 27.5C 65 64.16666666666667 0 64.16666666666667 0 27.5Z" stroke="#323232" stroke-width="2" fill-opacity="1" fill="#ffffff"></path><g id="SvgjsG2534"><text id="SvgjsText2535" font-family="微软雅黑" text-anchor="middle" font-size="13px" width="26" fill="#323232" font-weight="400" align="middle" anchor="middle" family="微软雅黑" size="13px" weight="400" font-style="" y="17.55" transform="rotate(0)"><tspan id="SvgjsTspan2536" dy="16" x="32.5"><tspan id="SvgjsTspan2537" style="text-decoration:underline;">SSN</tspan></tspan></text></g></g><g id="SvgjsG2538"><path id="SvgjsPath2539" d="M57.5 151L127 222" stroke="#323232" stroke-width="2" fill="none"></path></g><g id="SvgjsG2540" transform="translate(94.5,96)"><path id="SvgjsPath2541" d="M 0 27.5C 0 -9.166666666666666 65 -9.166666666666666 65 27.5C 65 64.16666666666667 0 64.16666666666667 0 27.5Z" stroke="#323232" stroke-width="2" fill-opacity="1" fill="#ffffff"></path><g id="SvgjsG2542"><text id="SvgjsText2543" font-family="微软雅黑" text-anchor="middle" font-size="13px" width="37" fill="#323232" font-weight="400" align="middle" anchor="middle" family="微软雅黑" size="13px" weight="400" font-style="" y="17.55" transform="rotate(0)"><tspan id="SvgjsTspan2544" dy="16" x="32.5"><tspan id="SvgjsTspan2545" style="text-decoration:;">Name</tspan></tspan></text></g></g><g id="SvgjsG2546"><path id="SvgjsPath2547" d="M127 151L127 222" stroke="#323232" stroke-width="2" fill="none"></path></g><g id="SvgjsG2548" transform="translate(165,96)"><path id="SvgjsPath2549" d="M 0 27.5C 0 -9.166666666666666 65 -9.166666666666666 65 27.5C 65 64.16666666666667 0 64.16666666666667 0 27.5Z" stroke="#323232" stroke-width="2" fill-opacity="1" fill="#ffffff"></path><g id="SvgjsG2550"><text id="SvgjsText2551" font-family="微软雅黑" text-anchor="middle" font-size="13px" width="25" fill="#323232" font-weight="400" align="middle" anchor="middle" family="微软雅黑" size="13px" weight="400" font-style="" y="17.55" transform="rotate(0)"><tspan id="SvgjsTspan2552" dy="16" x="32.5"><tspan id="SvgjsTspan2553" style="text-decoration:;">Age</tspan></tspan></text></g></g><g id="SvgjsG2554"><path id="SvgjsPath2555" d="M197.5 151L127 222" stroke="#323232" stroke-width="2" fill="none"></path></g><g id="SvgjsG2556" transform="translate(245,222)"><path id="SvgjsPath2557" d="M 0 35L 35.5 0L 71 35L 35.5 70L 0 35Z" stroke="#323232" stroke-width="2" fill-opacity="1" fill="#ffffff"></path><g id="SvgjsG2558"><text id="SvgjsText2559" font-family="微软雅黑" text-anchor="middle" font-size="13px" width="47" fill="#323232" font-weight="400" align="middle" anchor="middle" family="微软雅黑" size="13px" weight="400" font-style="" y="25.05" transform="rotate(0)"><tspan id="SvgjsTspan2560" dy="16" x="35.5"><tspan id="SvgjsTspan2561" style="text-decoration:;">GoesTo</tspan></tspan></text></g></g><g id="SvgjsG2562"><path id="SvgjsPath2563" d="M177 257L245 257" stroke="#323232" stroke-width="2" fill="none"></path><rect id="SvgjsRect2564" width="11" height="16" x="205.5" y="249" fill="#ffffff"></rect><text id="SvgjsText2565" font-family="微软雅黑" text-anchor="middle" font-size="13px" width="11" fill="#323232" font-weight="400" align="top" anchor="middle" family="微软雅黑" size="13px" weight="400" font-style="" y="247.05" transform="rotate(0)"><tspan id="SvgjsTspan2566" dy="16" x="211"><tspan id="SvgjsTspan2567" style="text-decoration:;">N</tspan></tspan></text></g><g id="SvgjsG2568" transform="translate(383,222)"><path id="SvgjsPath2569" d="M 0 0L 100 0L 100 70L 0 70Z" stroke="#323232" stroke-width="2" fill-opacity="1" fill="#ffffff"></path><g id="SvgjsG2570"><text id="SvgjsText2571" font-family="微软雅黑" text-anchor="middle" font-size="13px" width="29" fill="#323232" font-weight="400" align="middle" anchor="middle" family="微软雅黑" size="13px" weight="400" font-style="" y="25.05" transform="rotate(0)"><tspan id="SvgjsTspan2572" dy="16" x="50"><tspan id="SvgjsTspan2573" style="text-decoration:;">Gym</tspan></tspan></text></g></g><g id="SvgjsG2574"><path id="SvgjsPath2575" d="M316 257L383 257" stroke="#323232" stroke-width="2" fill="none"></path><rect id="SvgjsRect2576" width="13" height="16" x="343" y="249" fill="#ffffff"></rect><text id="SvgjsText2577" font-family="微软雅黑" text-anchor="middle" font-size="13px" width="13" fill="#323232" font-weight="400" align="top" anchor="middle" family="微软雅黑" size="13px" weight="400" font-style="" y="247.05" transform="rotate(0)"><tspan id="SvgjsTspan2578" dy="16" x="349.5"><tspan id="SvgjsTspan2579" style="text-decoration:;">M</tspan></tspan></text></g><g id="SvgjsG2580" transform="translate(259,25)"><path id="SvgjsPath2581" d="M 0 27.5C 0 -9.166666666666666 65 -9.166666666666666 65 27.5C 65 64.16666666666667 0 64.16666666666667 0 27.5Z" stroke="#323232" stroke-width="2" fill-opacity="1" fill="#ffffff"></path><g id="SvgjsG2582"><text id="SvgjsText2583" font-family="微软雅黑" text-anchor="middle" font-size="13px" width="37" fill="#323232" font-weight="400" align="middle" anchor="middle" family="微软雅黑" size="13px" weight="400" font-style="" y="17.55" transform="rotate(0)"><tspan id="SvgjsTspan2584" dy="16" x="32.5"><tspan id="SvgjsTspan2585" style="text-decoration:underline;">Name</tspan></tspan></text></g></g><g id="SvgjsG2586" transform="translate(328.5,25)"><path id="SvgjsPath2587" d="M 0 27.5C 0 -9.166666666666666 65 -9.166666666666666 65 27.5C 65 64.16666666666667 0 64.16666666666667 0 27.5Z" stroke="#323232" stroke-width="2" fill-opacity="1" fill="#ffffff"></path><g id="SvgjsG2588"><text id="SvgjsText2589" font-family="微软雅黑" text-anchor="middle" font-size="13px" width="31" fill="#323232" font-weight="400" align="middle" anchor="middle" family="微软雅黑" size="13px" weight="400" font-style="" y="9.55" transform="rotate(0)"><tspan id="SvgjsTspan2590" dy="16" x="32.5"><tspan id="SvgjsTspan2591" style="text-decoration:;">Str</tspan></tspan><tspan id="SvgjsTspan2592" dy="16" x="32.5"><tspan id="SvgjsTspan2593" style="text-decoration:;">Num</tspan></tspan></text></g></g><g id="SvgjsG2594" transform="translate(399,25)"><path id="SvgjsPath2595" d="M 0 27.5C 0 -9.166666666666666 65 -9.166666666666666 65 27.5C 65 64.16666666666667 0 64.16666666666667 0 27.5Z" stroke="#323232" stroke-width="2" fill-opacity="1" fill="#ffffff"></path><g id="SvgjsG2596"><text id="SvgjsText2597" font-family="微软雅黑" text-anchor="middle" font-size="13px" width="37" fill="#323232" font-weight="400" align="middle" anchor="middle" family="微软雅黑" size="13px" weight="400" font-style="" y="9.55" transform="rotate(0)"><tspan id="SvgjsTspan2598" dy="16" x="32.5"><tspan id="SvgjsTspan2599" style="text-decoration:;">Str</tspan></tspan><tspan id="SvgjsTspan2600" dy="16" x="32.5"><tspan id="SvgjsTspan2601" style="text-decoration:;">Name</tspan></tspan></text></g></g><g id="SvgjsG2602"><path id="SvgjsPath2603" d="M431.5 80L433 222" stroke="#323232" stroke-width="2" fill="none"></path></g><g id="SvgjsG2604"><path id="SvgjsPath2605" d="M361 80L433 222" stroke="#323232" stroke-width="2" fill="none"></path></g><g id="SvgjsG2606"><path id="SvgjsPath2607" d="M291.5 80L433 222" stroke="#323232" stroke-width="2" fill="none"></path></g><g id="SvgjsG2608" transform="translate(469,25)"><path id="SvgjsPath2609" d="M 0 27.5C 0 -9.166666666666666 65 -9.166666666666666 65 27.5C 65 64.16666666666667 0 64.16666666666667 0 27.5Z" stroke="#323232" stroke-width="2" fill-opacity="1" fill="#ffffff"></path><g id="SvgjsG2610"><text id="SvgjsText2611" font-family="微软雅黑" text-anchor="middle" font-size="13px" width="20" fill="#323232" font-weight="400" align="middle" anchor="middle" family="微软雅黑" size="13px" weight="400" font-style="" y="17.55" transform="rotate(0)"><tspan id="SvgjsTspan2612" dy="16" x="32.5"><tspan id="SvgjsTspan2613" style="text-decoration:;">ZIP</tspan></tspan></text></g></g><g id="SvgjsG2614" transform="translate(542,25)"><path id="SvgjsPath2615" d="M 0 27.5C 0 -9.166666666666666 65 -9.166666666666666 65 27.5C 65 64.16666666666667 0 64.16666666666667 0 27.5Z" stroke="#323232" stroke-width="2" fill-opacity="1" fill="#ffffff"></path><g id="SvgjsG2616"><text id="SvgjsText2617" font-family="微软雅黑" text-anchor="middle" font-size="13px" width="40" fill="#323232" font-weight="400" align="middle" anchor="middle" family="微软雅黑" size="13px" weight="400" font-style="" y="9.55" transform="rotate(0)"><tspan id="SvgjsTspan2618" dy="16" x="32.5"><tspan id="SvgjsTspan2619" style="text-decoration:;">Phone</tspan></tspan><tspan id="SvgjsTspan2620" dy="16" x="32.5"><tspan id="SvgjsTspan2621" style="text-decoration:;">Num</tspan></tspan></text></g></g><g id="SvgjsG2622"><path id="SvgjsPath2623" d="M501.5 80L433 222" stroke="#323232" stroke-width="2" fill="none"></path></g><g id="SvgjsG2624"><path id="SvgjsPath2625" d="M574.5 80L433 222" stroke="#323232" stroke-width="2" fill="none"></path></g><g id="SvgjsG2626" transform="translate(601,222)"><path id="SvgjsPath2627" d="M 0 35L 35.5 0L 71 35L 35.5 70L 0 35Z" stroke="#323232" stroke-width="2" fill-opacity="1" fill="#ffffff"></path><g id="SvgjsG2628"><text id="SvgjsText2629" font-family="微软雅黑" text-anchor="middle" font-size="13px" width="43" fill="#323232" font-weight="400" align="middle" anchor="middle" family="微软雅黑" size="13px" weight="400" font-style="" y="17.05" transform="rotate(0)"><tspan id="SvgjsTspan2630" dy="16" x="35.5"><tspan id="SvgjsTspan2631" style="text-decoration:;">WorksI</tspan></tspan><tspan id="SvgjsTspan2632" dy="16" x="35.5"><tspan id="SvgjsTspan2633" style="text-decoration:;font-size: inherit;">n</tspan></tspan></text></g></g><g id="SvgjsG2634" transform="translate(777,222)"><path id="SvgjsPath2635" d="M 0 0L 100 0L 100 70L 0 70Z" stroke="#323232" stroke-width="2" fill-opacity="1" fill="#ffffff"></path><g id="SvgjsG2636"><text id="SvgjsText2637" font-family="微软雅黑" text-anchor="middle" font-size="13px" width="61" fill="#323232" font-weight="400" align="middle" anchor="middle" family="微软雅黑" size="13px" weight="400" font-style="" y="25.05" transform="rotate(0)"><tspan id="SvgjsTspan2638" dy="16" x="50"><tspan id="SvgjsTspan2639" style="text-decoration:;">Employee</tspan></tspan></text></g></g><g id="SvgjsG2640"><path id="SvgjsPath2641" d="M483 257L601 257" stroke="#323232" stroke-width="2" fill="none"></path><rect id="SvgjsRect2642" width="11" height="16" x="536.5" y="249" fill="#ffffff"></rect><text id="SvgjsText2643" font-family="微软雅黑" text-anchor="middle" font-size="13px" width="11" fill="#323232" font-weight="400" align="top" anchor="middle" family="微软雅黑" size="13px" weight="400" font-style="" y="247.05" transform="rotate(0)"><tspan id="SvgjsTspan2644" dy="16" x="542"><tspan id="SvgjsTspan2645" style="text-decoration:;">N</tspan></tspan></text></g><g id="SvgjsG2646"><path id="SvgjsPath2647" d="M672 257L777 257" stroke="#323232" stroke-width="2" fill="none"></path><rect id="SvgjsRect2648" width="13" height="16" x="718" y="249" fill="#ffffff"></rect><text id="SvgjsText2649" font-family="微软雅黑" text-anchor="middle" font-size="13px" width="13" fill="#323232" font-weight="400" align="top" anchor="middle" family="微软雅黑" size="13px" weight="400" font-style="" y="247.05" transform="rotate(0)"><tspan id="SvgjsTspan2650" dy="16" x="724.5"><tspan id="SvgjsTspan2651" style="text-decoration:;">M</tspan></tspan></text></g><g id="SvgjsG2652" transform="translate(604,109)"><path id="SvgjsPath2653" d="M 0 27.5C 0 -9.166666666666666 65 -9.166666666666666 65 27.5C 65 64.16666666666667 0 64.16666666666667 0 27.5Z" stroke="#323232" stroke-width="2" fill-opacity="1" fill="#ffffff"></path><g id="SvgjsG2654"><text id="SvgjsText2655" font-family="微软雅黑" text-anchor="middle" font-size="13px" width="30" fill="#323232" font-weight="400" align="middle" anchor="middle" family="微软雅黑" size="13px" weight="400" font-style="" y="9.55" transform="rotate(0)"><tspan id="SvgjsTspan2656" dy="16" x="32.5"><tspan id="SvgjsTspan2657" style="text-decoration:;">Time</tspan></tspan><tspan id="SvgjsTspan2658" dy="16" x="32.5"><tspan id="SvgjsTspan2659" style="text-decoration:;">Pts</tspan></tspan></text></g></g><g id="SvgjsG2660"><path id="SvgjsPath2661" d="M636.5 164L636.5 222" stroke="#323232" stroke-width="2" fill="none"></path></g><g id="SvgjsG2662" transform="translate(759.75,96)"><path id="SvgjsPath2663" d="M 0 27.5C 0 -9.166666666666666 65 -9.166666666666666 65 27.5C 65 64.16666666666667 0 64.16666666666667 0 27.5Z" stroke="#323232" stroke-width="2" fill-opacity="1" fill="#ffffff"></path><g id="SvgjsG2664"><text id="SvgjsText2665" font-family="微软雅黑" text-anchor="middle" font-size="13px" width="26" fill="#323232" font-weight="400" align="middle" anchor="middle" family="微软雅黑" size="13px" weight="400" font-style="" y="17.55" transform="rotate(0)"><tspan id="SvgjsTspan2666" dy="16" x="32.5"><tspan id="SvgjsTspan2667" style="text-decoration:underline;">SSN</tspan></tspan></text></g></g><g id="SvgjsG2668" transform="translate(829.25,96)"><path id="SvgjsPath2669" d="M 0 27.5C 0 -9.166666666666666 65 -9.166666666666666 65 27.5C 65 64.16666666666667 0 64.16666666666667 0 27.5Z" stroke="#323232" stroke-width="2" fill-opacity="1" fill="#ffffff"></path><g id="SvgjsG2670"><text id="SvgjsText2671" font-family="微软雅黑" text-anchor="middle" font-size="13px" width="37" fill="#323232" font-weight="400" align="middle" anchor="middle" family="微软雅黑" size="13px" weight="400" font-style="" y="17.55" transform="rotate(0)"><tspan id="SvgjsTspan2672" dy="16" x="32.5"><tspan id="SvgjsTspan2673" style="text-decoration:;">Name</tspan></tspan></text></g></g><g id="SvgjsG2674"><path id="SvgjsPath2675" d="M792.25 151L827 222" stroke="#323232" stroke-width="2" fill="none"></path></g><g id="SvgjsG2676"><path id="SvgjsPath2677" d="M861.75 151L827 222" stroke="#323232" stroke-width="2" fill="none"></path></g><g id="SvgjsG2678" transform="translate(787,361)"><path id="SvgjsPath2679" d="M 40 0L 80 70L 0 70Z" stroke="#323232" stroke-width="2" fill-opacity="1" fill="#ffffff"></path><g id="SvgjsG2680"><text id="SvgjsText2681" font-family="微软雅黑" text-anchor="middle" font-size="13px" width="26" fill="#323232" font-weight="400" align="middle" anchor="middle" family="微软雅黑" size="13px" weight="400" font-style="" y="33.8" transform="rotate(0)"><tspan id="SvgjsTspan2682" dy="16" x="40"><tspan id="SvgjsTspan2683" style="text-decoration:;">IS_A</tspan></tspan></text></g></g><g id="SvgjsG2684"><path id="SvgjsPath2685" d="M827 292L827 361" stroke="#323232" stroke-width="2" fill="none"></path></g><g id="SvgjsG2686" transform="translate(658,526)"><path id="SvgjsPath2687" d="M 0 0L 100 0L 100 70L 0 70Z" stroke="#323232" stroke-width="2" fill-opacity="1" fill="#ffffff"></path><g id="SvgjsG2688"><text id="SvgjsText2689" font-family="微软雅黑" text-anchor="middle" font-size="13px" width="56" fill="#323232" font-weight="400" align="middle" anchor="middle" family="微软雅黑" size="13px" weight="400" font-style="" y="25.05" transform="rotate(0)"><tspan id="SvgjsTspan2690" dy="16" x="50"><tspan id="SvgjsTspan2691" style="text-decoration:;">Manager</tspan></tspan></text></g></g><g id="SvgjsG2692" transform="translate(777,526)"><path id="SvgjsPath2693" d="M 0 0L 100 0L 100 70L 0 70Z" stroke="#323232" stroke-width="2" fill-opacity="1" fill="#ffffff"></path><g id="SvgjsG2694"><text id="SvgjsText2695" font-family="微软雅黑" text-anchor="middle" font-size="13px" width="77" fill="#323232" font-weight="400" align="middle" anchor="middle" family="微软雅黑" size="13px" weight="400" font-style="" y="25.05" transform="rotate(0)"><tspan id="SvgjsTspan2696" dy="16" x="50"><tspan id="SvgjsTspan2697" style="text-decoration:;">Receptionist</tspan></tspan></text></g></g><g id="SvgjsG2698" transform="translate(896,526)"><path id="SvgjsPath2699" d="M 0 0L 100 0L 100 70L 0 70Z" stroke="#323232" stroke-width="2" fill-opacity="1" fill="#ffffff"></path><g id="SvgjsG2700"><text id="SvgjsText2701" font-family="微软雅黑" text-anchor="middle" font-size="13px" width="53" fill="#323232" font-weight="400" align="middle" anchor="middle" family="微软雅黑" size="13px" weight="400" font-style="" y="17.05" transform="rotate(0)"><tspan id="SvgjsTspan2702" dy="16" x="50"><tspan id="SvgjsTspan2703" style="text-decoration:;">Personal</tspan></tspan><tspan id="SvgjsTspan2704" dy="16" x="50"><tspan id="SvgjsTspan2705" style="text-decoration:;">Trainer</tspan></tspan></text></g></g><g id="SvgjsG2706"><path id="SvgjsPath2707" d="M708 526L827 431" stroke="#323232" stroke-width="2" fill="none"></path></g><g id="SvgjsG2708"><path id="SvgjsPath2709" d="M827 526L827 431" stroke="#323232" stroke-width="2" fill="none"></path></g><g id="SvgjsG2710"><path id="SvgjsPath2711" d="M946 526L827 431" stroke="#323232" stroke-width="2" fill="none"></path></g><g id="SvgjsG2712" transform="translate(913.5,667)"><path id="SvgjsPath2713" d="M 0 27.5C 0 -9.166666666666666 65 -9.166666666666666 65 27.5C 65 64.16666666666667 0 64.16666666666667 0 27.5Z" stroke="#323232" stroke-width="2" fill-opacity="1" fill="#ffffff"></path><g id="SvgjsG2714"><text id="SvgjsText2715" font-family="微软雅黑" text-anchor="middle" font-size="13px" width="30" fill="#323232" font-weight="400" align="middle" anchor="middle" family="微软雅黑" size="13px" weight="400" font-style="" y="17.55" transform="rotate(0)"><tspan id="SvgjsTspan2716" dy="16" x="32.5"><tspan id="SvgjsTspan2717" style="text-decoration:;">Type</tspan></tspan></text></g></g><g id="SvgjsG2718"><path id="SvgjsPath2719" d="M946 596L946 667" stroke="#323232" stroke-width="2" fill="none"></path></g><g id="SvgjsG2720" transform="translate(396,523)"><path id="SvgjsPath2721" d="M 0 38L 39.5 0L 79 38L 39.5 76L 0 38Z" stroke="#323232" stroke-width="2" fill-opacity="1" fill="#ffffff"></path><g id="SvgjsG2722"><text id="SvgjsText2723" font-family="微软雅黑" text-anchor="middle" font-size="13px" width="57" fill="#323232" font-weight="400" align="middle" anchor="middle" family="微软雅黑" size="13px" weight="400" font-style="" y="28.05" transform="rotate(0)"><tspan id="SvgjsTspan2724" dy="16" x="39.5"><tspan id="SvgjsTspan2725" style="text-decoration:;">Manages</tspan></tspan></text></g></g><g id="SvgjsG2726"><path id="SvgjsPath2727" d="M435.5 523L433 292" stroke="#323232" stroke-width="2" fill="none"></path><rect id="SvgjsRect2728" width="11" height="16" x="428.75" y="399.5" fill="#ffffff"></rect><text id="SvgjsText2729" font-family="微软雅黑" text-anchor="middle" font-size="13px" width="11" fill="#323232" font-weight="400" align="top" anchor="middle" family="微软雅黑" size="13px" weight="400" font-style="" y="397.55" transform="rotate(0)"><tspan id="SvgjsTspan2730" dy="16" x="434.25"><tspan id="SvgjsTspan2731" style="text-decoration:;">N</tspan></tspan></text></g><g id="SvgjsG2732"><path id="SvgjsPath2733" d="M475 561L658 561" stroke="#323232" stroke-width="2" fill="none"></path><rect id="SvgjsRect2734" width="8" height="16" x="562.5" y="553" fill="#ffffff"></rect><text id="SvgjsText2735" font-family="微软雅黑" text-anchor="middle" font-size="13px" width="8" fill="#323232" font-weight="400" align="top" anchor="middle" family="微软雅黑" size="13px" weight="400" font-style="" y="551.05" transform="rotate(0)"><tspan id="SvgjsTspan2736" dy="16" x="566.5"><tspan id="SvgjsTspan2737" style="text-decoration:;">1</tspan></tspan></text></g><g id="SvgjsG2738" transform="translate(91.5,337)"><path id="SvgjsPath2739" d="M 0 35L 35.5 0L 71 35L 35.5 70L 0 35Z" stroke="#323232" stroke-width="2" fill-opacity="1" fill="#ffffff"></path><g id="SvgjsG2740"><text id="SvgjsText2741" font-family="微软雅黑" text-anchor="middle" font-size="13px" width="35" fill="#323232" font-weight="400" align="middle" anchor="middle" family="微软雅黑" size="13px" weight="400" font-style="" y="25.05" transform="rotate(0)"><tspan id="SvgjsTspan2742" dy="16" x="35.5"><tspan id="SvgjsTspan2743" style="text-decoration:;">Hosts</tspan></tspan></text></g></g><g id="SvgjsG2744"><path id="SvgjsPath2745" d="M127 292L127 337" stroke="#323232" stroke-width="2" fill="none"></path><rect id="SvgjsRect2746" width="8" height="16" x="123" y="306.5" fill="#ffffff"></rect><text id="SvgjsText2747" font-family="微软雅黑" text-anchor="middle" font-size="13px" width="8" fill="#323232" font-weight="400" align="top" anchor="middle" family="微软雅黑" size="13px" weight="400" font-style="" y="304.55" transform="rotate(0)"><tspan id="SvgjsTspan2748" dy="16" x="127"><tspan id="SvgjsTspan2749" style="text-decoration:;">1</tspan></tspan></text></g><g id="SvgjsG2750" transform="translate(77,447)"><path id="SvgjsPath2751" d="M 0 0L 100 0L 100 70L 0 70Z" stroke="#323232" stroke-width="2" fill-opacity="1" fill="#ffffff"></path><g id="SvgjsG2752"><text id="SvgjsText2753" font-family="微软雅黑" text-anchor="middle" font-size="13px" width="36" fill="#323232" font-weight="400" align="middle" anchor="middle" family="微软雅黑" size="13px" weight="400" font-style="" y="25.05" transform="rotate(0)"><tspan id="SvgjsTspan2754" dy="16" x="50"><tspan id="SvgjsTspan2755" style="text-decoration:;">Guest</tspan></tspan></text></g></g><g id="SvgjsG2756" transform="translate(59.75,588)"><path id="SvgjsPath2757" d="M 0 27.5C 0 -9.166666666666666 65 -9.166666666666666 65 27.5C 65 64.16666666666667 0 64.16666666666667 0 27.5Z" stroke="#323232" stroke-width="2" fill-opacity="1" fill="#ffffff"></path><g id="SvgjsG2758"><text id="SvgjsText2759" font-family="微软雅黑" text-anchor="middle" font-size="13px" width="37" fill="#323232" font-weight="400" align="middle" anchor="middle" family="微软雅黑" size="13px" weight="400" font-style="" y="17.55" transform="rotate(0)"><tspan id="SvgjsTspan2760" dy="16" x="32.5"><tspan id="SvgjsTspan2761" style="text-decoration:;">Name</tspan></tspan></text></g></g><g id="SvgjsG2762" transform="translate(129.25,588)"><path id="SvgjsPath2763" d="M 0 27.5C 0 -9.166666666666666 65 -9.166666666666666 65 27.5C 65 64.16666666666667 0 64.16666666666667 0 27.5Z" stroke="#323232" stroke-width="2" fill-opacity="1" fill="#ffffff"></path><g id="SvgjsG2764"><text id="SvgjsText2765" font-family="微软雅黑" text-anchor="middle" font-size="13px" width="23" fill="#323232" font-weight="400" align="middle" anchor="middle" family="微软雅黑" size="13px" weight="400" font-style="" y="17.55" transform="rotate(0)"><tspan id="SvgjsTspan2766" dy="16" x="32.5"><tspan id="SvgjsTspan2767" style="text-decoration:;">age</tspan></tspan></text></g></g><g id="SvgjsG2768"><path id="SvgjsPath2769" d="M92.25 588L127 517" stroke="#323232" stroke-width="2" fill="none"></path></g><g id="SvgjsG2770"><path id="SvgjsPath2771" d="M161.75 588L127 517" stroke="#323232" stroke-width="2" fill="none"></path></g><g id="SvgjsG2772"><path id="SvgjsPath2773" d="M127 407L127 447" stroke="#323232" stroke-width="2" fill="none"></path><rect id="SvgjsRect2774" width="11" height="16" x="121.5" y="419" fill="#ffffff"></rect><text id="SvgjsText2775" font-family="微软雅黑" text-anchor="middle" font-size="13px" width="11" fill="#323232" font-weight="400" align="top" anchor="middle" family="微软雅黑" size="13px" weight="400" font-style="" y="417.05" transform="rotate(0)"><tspan id="SvgjsTspan2776" dy="16" x="127"><tspan id="SvgjsTspan2777" style="text-decoration:;">N</tspan></tspan></text></g></svg>